<?xml version="1.0" standalone="no"?><!DOCTYPE svg PUBLIC "-//W3C//DTD SVG 1.1//EN" "http://www.w3.org/Graphics/SVG/1.1/DTD/svg11.dtd"><svg t="1557149855119" class="icon" style="" viewBox="0 0 1024 1024" version="1.1" xmlns="http://www.w3.org/2000/svg" p-id="2010" xmlns:xlink="http://www.w3.org/1999/xlink" width="200" height="200"><defs><style type="text/css"></style></defs><path d="M781.486664 722.749912 653.756561 722.749912c-10.644431 0-15.966647-5.288446-15.966647-15.966647 0-10.644431 5.322216-15.966647 15.966647-15.966647l127.730103 0c39.910988 0 73.844845-13.973246 101.784174-41.912575 27.939329-27.947516 41.912575-61.872163 41.912575-101.784174 0-34.597983-10.975982-65.159022-32.92897-91.812055-21.952988-26.610054-50.232055-43.198871-84.821851-49.891294-10.644431-2.665713-14.638395-8.652054-11.972683-17.959024 1.328251-6.658653 1.992377-17.260106 1.992377-31.93227 0-57.172117-20.292162-106.067734-60.876486-146.694013-40.576137-40.584324-89.470731-60.867276-146.685827-60.867276-45.242414 0-86.481653 13.96506-123.736139 41.904389-37.254485 27.947516-62.536288 63.201437-75.846432 105.778138 0 5.322216-3.320629 9.31618-9.971096 11.980869-7.986905 0-13.30912-1.294482-15.966647-3.993964-18.631336-18.631336-41.912575-27.939329-69.860091-27.939329-29.267581 0-53.885258 9.971096-73.836659 29.931706-19.959587 19.959587-29.939893 44.612057-29.939893 73.844845 0 7.986905 0.664126 13.973246 1.992377 17.959024 0 7.986905-3.320629 13.973246-9.980305 17.96721-58.543348 23.945365-87.809905 67.858504-87.809905 131.724067 0 39.910988 13.973246 73.836659 41.912575 101.784174 27.939329 27.939329 61.863976 41.912575 101.784174 41.912575l223.527936 0c10.644431 0 15.966647 5.322216 15.966647 15.966647 0 10.6782-5.322216 15.966647-15.966647 15.966647L238.632959 722.750935c-49.227168 0-90.808192-16.971533-124.741026-50.89618-33.92567-33.92567-50.887994-75.505671-50.887994-124.732839 0-71.852468 31.93227-124.409474 95.797833-157.669996l0-9.980305c0-37.21253 13.300934-69.1448 39.910988-95.797833 26.610054-26.610054 58.543348-39.910988 95.797833-39.910988 26.610054 0 51.228755 7.314593 73.844845 21.952988 18.631336-45.199435 47.898917-81.500199 87.819115-108.775402 39.910988-27.232225 84.489276-40.907689 133.716444-40.907689 66.522066 0 123.072013 23.281239 169.642678 69.851904 46.570665 46.604434 69.851904 103.112426 69.851904 169.642678 0 9.30697-0.664126 16.672728-1.992377 21.952988 38.582737 10.686387 69.851904 31.642674 93.796246 62.868863 23.953551 31.259958 35.926234 66.853617 35.926234 106.773815 0 49.227168-16.962324 90.808192-50.89618 124.732839C872.294856 705.778378 830.713832 722.749912 781.486664 722.749912zM673.717172 758.667959 573.925375 860.452133 573.925375 419.390789c0-10.644431-5.322216-15.966647-15.966647-15.966647-10.644431 0-15.966647 5.322216-15.966647 15.966647l0 441.061344-99.791797-101.784174c-7.978718-7.978718-15.966647-7.978718-23.945365 0-7.986905 7.986905-7.986905 15.966647 0 23.953551l127.730103 127.730103 1.992377 0c1.328251 1.328251 2.665713 1.992377 3.993964 1.992377 1.328251 1.328251 3.320629 2.001587 5.986341 2.001587 2.656503 0 4.65809-0.672312 5.986341-2.001587 1.328251 0 3.329838-0.664126 5.986341-1.992377l127.730103-127.730103c7.986905-7.986905 7.986905-15.966647 0-23.953551C689.682795 750.689241 681.69589 750.689241 673.717172 758.667959z" p-id="2011"></path></svg>
