<?xml version="1.0" standalone="no"?><!DOCTYPE svg PUBLIC "-//W3C//DTD SVG 1.1//EN" "http://www.w3.org/Graphics/SVG/1.1/DTD/svg11.dtd"><svg t="1571146101902" class="icon" viewBox="0 0 1024 1024" version="1.1" xmlns="http://www.w3.org/2000/svg" p-id="1128" xmlns:xlink="http://www.w3.org/1999/xlink" width="200" height="200"><defs><style type="text/css"></style></defs><path d="M440.746667 85.333333h142.933333a32 32 0 1 0 0-64h-142.933333a32 32 0 1 0 0 64zM951.893333 134.826667H72.106667a32 32 0 0 0 0 64h879.786666a32 32 0 0 0 0-64zM866.56 258.56a32 32 0 0 0-32 32v655.786667H189.44V290.56a32 32 0 1 0-64 0v687.786667a32 32 0 0 0 32 32h709.12a32 32 0 0 0 32-32V290.56a32 32 0 0 0-32-32z" fill="" p-id="1129"></path><path d="M654.933333 853.333333V365.226667a32 32 0 1 0-64 0V853.333333a32 32 0 0 0 64 0zM430.08 853.333333V365.226667a32 32 0 0 0-64 0V853.333333a32 32 0 0 0 64 0z" fill="" p-id="1130"></path></svg>
